<?xml version="1.0" encoding="UTF-8"?>
<svg id="_图层_1" data-name="图层 1" xmlns="http://www.w3.org/2000/svg" viewBox="0 0 256 256">
  <defs>
    <style>
      .cls-1 {
        fill: #165dff;
      }

      .cls-1, .cls-2 {
        stroke-width: 0px;
      }

      .cls-2 {
        fill: #8dc1ff;
      }
    </style>
  </defs>
  <path class="cls-1" d="m166.78,187.84c-.42-.64-3.41-6.13-4.75-10.59-.2-.67-3.33-10.22,0-22.15.78-2.81,4.32-9.95,4.75-10.59,1.31-2.3,2.38-4.72,3.22-7.19,4.97-14.66,1.6-31.52-10.09-43.21-1.37-1.37-2.81-2.62-4.31-3.76,0,0-45.21,45.64-45.78,46.21-4.72,4.72-8.09,10.29-10.09,16.21-1.21,3.57-1.93,7.26-2.14,10.98h-.02c-.04.81-.06,1.62-.05,2.43,0,.81,0,1.62.05,2.43h.02c.22,3.72.93,7.41,2.14,10.98,2,5.92,5.37,11.49,10.09,16.21.57.57,45.11,46.21,45.11,46.21,1.5-1.14,3.61-3.06,4.98-4.42,11.69-11.69,15.05-27.88,10.09-42.55-.84-2.47-1.91-4.89-3.22-7.19Z"/>
  <path class="cls-2" d="m84.15,167.72c.06,1.11-1.28,1.7-2.06.91l-14.16-14.52-.56-.57c-4.29-4.29-7.46-9.27-9.5-14.59-.5-1.29-.93-2.59-1.29-3.91-.62-2.26-1.06-4.56-1.29-6.88-.01-.09-.02-.17-.03-.26-1.17-12.07,2.87-24.55,12.11-33.79.57-.57,3.82-4.24,3.82-4.24L147.05,14c1.67,1.24,3.27,2.61,4.79,4.13,15.21,15.21,16.32,39.17,3.35,55.65l-55.59,55.59c-.7.55-6.92,7.03-8.94,9.61-4.52,5.75-6.31,13.71-6.74,20.07-.12,1.82.06,5.81.22,8.66Z"/>
</svg>